<svg width="30" height="30" viewBox="0 0 30 30" fill="none" xmlns="http://www.w3.org/2000/svg">
<path d="M26.25 9.17125H21.3375L21.8025 3.83125C21.8475 3.31625 21.465 2.8625 20.95 2.81625C20.4288 2.77875 19.98 3.15375 19.935 3.67L19.4562 9.17H11.5562L12.0187 3.8325C12.065 3.31625 11.6813 2.8625 11.1688 2.81625C10.6438 2.77875 10.1975 3.15375 10.1525 3.67L9.675 9.17H4.7275C4.21 9.17 3.79 9.59125 3.79 10.1075C3.79 10.6238 4.21 11.045 4.7275 11.045H9.5125L8.825 18.9538H3.75C3.2325 18.9538 2.8125 19.3738 2.8125 19.8913C2.8125 20.4088 3.2325 20.8288 3.75 20.8288H8.6625L8.1975 26.1687C8.1525 26.6837 8.535 27.1375 9.05 27.1837L9.1325 27.1875C9.61375 27.1875 10.0225 26.8187 10.065 26.33L10.5438 20.83H18.4438L17.9813 26.1675C17.9363 26.6837 18.3188 27.1375 18.8337 27.1837L18.9163 27.1875C19.3975 27.1875 19.8062 26.8187 19.8487 26.33L20.3263 20.83H25.2725C25.7887 20.83 26.21 20.4088 26.21 19.8925C26.21 19.3762 25.7887 18.955 25.2725 18.955H20.4875L21.175 11.0463H26.25C26.7675 11.0463 27.1875 10.6263 27.1875 10.1088C27.1875 9.59125 26.7675 9.17125 26.25 9.17125ZM18.6063 18.9538H10.7062L11.3937 11.0463H19.2938L18.6063 18.9538Z" fill="#0F1419"/>
</svg>
