<svg width="30" height="30" viewBox="0 0 30 30" fill="none" xmlns="http://www.w3.org/2000/svg">
<path d="M28.225 9.1875L15.5938 2.37125C15.2225 2.17125 14.7763 2.17125 14.4063 2.37125L1.78126 9.1875C1.17376 9.5175 0.947508 10.275 1.27501 10.8825C1.50001 11.3012 1.93126 11.5387 2.37501 11.5387C2.57501 11.5387 2.78001 11.4912 2.96876 11.3887L3.88626 10.8937L5.87376 24.9562C6.14376 26.4737 7.51126 27.5337 9.19876 27.5337H20.8013C22.4888 27.5337 23.8563 26.4737 24.1288 24.9237L26.1138 10.8925L27.035 11.39C27.6413 11.7187 28.4 11.4925 28.7275 10.885C29.0563 10.2775 28.8275 9.51875 28.2225 9.19125L28.225 9.1875ZM15 19.2937C12.7563 19.2937 10.9375 17.475 10.9375 15.2312C10.9375 12.9875 12.7563 11.1687 15 11.1687C17.2438 11.1687 19.0625 12.9875 19.0625 15.2312C19.0625 17.475 17.2438 19.2937 15 19.2937Z" fill="#1DA1F2"/>
</svg>
