<svg width="30" height="30" viewBox="0 0 30 30" fill="none" xmlns="http://www.w3.org/2000/svg">
<path d="M15 10.2439C23.2843 10.2439 30 12.3733 30 15C30 17.6267 23.2843 19.7561 15 19.7561C6.71573 19.7561 0 17.6267 0 15C0 12.3733 6.71573 10.2439 15 10.2439Z" fill="#1DA1F2"/>
<path d="M18.2927 14.6341C18.2927 19.4835 15.9995 23.4146 13.1707 23.4146C10.342 23.4146 8.04878 19.4835 8.04878 14.6341C8.04878 9.78482 10.342 5.85366 13.1707 5.85366C15.9995 5.85366 18.2927 9.78482 18.2927 14.6341Z" fill="white"/>
<path d="M19.7561 15C19.7561 23.2843 17.6267 30 15 30C12.3733 30 10.2439 23.2843 10.2439 15C10.2439 6.71573 12.3733 0 15 0C17.6267 0 19.7561 6.71573 19.7561 15Z" fill="#1DA1F2"/>
</svg>
