<svg width="26" height="25" viewBox="0 0 26 25" fill="none" xmlns="http://www.w3.org/2000/svg">
<path d="M25.4239 12.2166C25.4239 11.6302 25.1903 11.078 24.7678 10.6626L22.2676 8.20466V4.73515C22.2676 3.52327 21.2636 2.53617 20.0309 2.53617H16.6212C16.5814 2.53617 16.5466 2.54106 16.5069 2.54594L14.0067 0.0830817C13.1369 -0.772079 11.7154 -0.772079 10.8455 0.0830817L8.35037 2.53617H4.81637C3.5837 2.53617 2.57967 3.52327 2.57967 4.73515V8.20955L0.0845011 10.6626C-0.785328 11.5178 -0.785328 12.9154 0.0845011 13.7705L2.57967 16.2236V19.698C2.57967 20.9099 3.5837 21.897 4.81637 21.897H8.3454L10.8455 24.355C11.2829 24.785 11.8545 25 12.4261 25C12.9977 25 13.5693 24.785 14.0067 24.355L16.5019 21.9019H20.0359C21.2686 21.9019 22.2726 20.9148 22.2726 19.7029V16.3702C22.2726 16.3262 22.2676 16.2823 22.2577 16.2383L24.7678 13.7705C25.1903 13.3552 25.4239 12.803 25.4239 12.2166ZM23.714 12.7346L21.0151 15.388C20.8163 15.5835 20.7516 15.8669 20.8262 16.1161C20.7964 16.1943 20.7765 16.2823 20.7765 16.3751V19.7029C20.7765 20.1085 20.4435 20.4359 20.0309 20.4359H16.5317C16.2633 20.3235 15.9403 20.3773 15.7166 20.5923L12.9431 23.319C12.8039 23.4558 12.615 23.534 12.4162 23.534C12.2174 23.534 12.0285 23.4558 11.8893 23.319L9.14067 20.6167C8.93688 20.4163 8.63865 20.3577 8.38019 20.4408C8.35037 20.4359 8.32054 20.4359 8.29072 20.4359H4.81637C4.40383 20.4359 4.07081 20.1085 4.07081 19.7029V15.9793C4.07081 15.7545 3.96643 15.5542 3.80737 15.4222C3.77258 15.3489 3.72287 15.2756 3.65826 15.217L1.13824 12.7346C0.849951 12.4511 0.849951 11.9869 1.13824 11.6986L3.83719 9.04516C3.9714 8.91322 4.04595 8.74219 4.05589 8.56627C4.06584 8.51252 4.07578 8.45877 4.07578 8.40501V4.73515C4.07578 4.32956 4.4088 4.00216 4.82134 4.00216H8.41001C8.66848 4.08035 8.95676 4.02171 9.16055 3.82135L11.9092 1.12393C12.1975 0.840509 12.6697 0.840509 12.9629 1.12393L15.811 3.92397C15.9552 4.06569 16.149 4.13898 16.3379 4.13898C16.487 4.13898 16.6311 4.09501 16.7604 4.00705H20.0508C20.4634 4.00705 20.7964 4.33445 20.7964 4.74004V8.16068C20.7964 8.27307 20.8262 8.38058 20.8709 8.47831C20.8411 8.69821 20.9107 8.92788 21.0797 9.09403L23.729 11.6986C24.0023 11.982 24.0023 12.4511 23.714 12.7346Z" fill="#0F1419"/>
<path d="M12.4261 8.55161C10.3684 8.55161 8.69829 10.1935 8.69829 12.2166C8.69829 14.2396 10.3684 15.8816 12.4261 15.8816C14.4839 15.8816 16.154 14.2396 16.154 12.2166C16.154 10.1935 14.4839 8.55161 12.4261 8.55161ZM12.4261 14.4156C11.1935 14.4156 10.1894 13.4285 10.1894 12.2166C10.1894 11.0047 11.1935 10.0176 12.4261 10.0176C13.6588 10.0176 14.6628 11.0047 14.6628 12.2166C14.6628 13.4285 13.6588 14.4156 12.4261 14.4156Z" fill="#0F1419"/>
</svg>

