<svg width="30" height="30" viewBox="0 0 30 30" fill="none" xmlns="http://www.w3.org/2000/svg">
<path d="M24.0625 3.77251H5.9375C4.04125 3.77251 2.5 5.31501 2.5 7.21251V22.8313C2.5 24.7288 4.04125 26.2725 5.9375 26.2725H24.0625C25.9587 26.2725 27.5 24.7288 27.5 22.8313V7.21251C27.5 5.31501 25.9587 3.77251 24.0625 3.77251ZM5.9375 5.64751H24.0625C24.925 5.64751 25.625 6.34751 25.625 7.21001V8.10251L15.5625 14.8113C15.2212 15.0363 14.78 15.0388 14.4375 14.8088L4.375 8.10251V7.21001C4.375 6.34751 5.075 5.64751 5.9375 5.64751ZM24.0625 24.395H5.9375C5.075 24.395 4.375 23.695 4.375 22.8325V10.3L13.425 16.3375C13.9037 16.6575 14.4525 16.8175 15 16.8175C15.55 16.8175 16.0963 16.6575 16.575 16.3388L25.625 10.3013V22.8288C25.625 23.6913 24.925 24.3913 24.0625 24.3913V24.395Z" fill="#0F1419"/>
</svg>
