<svg width="30" height="30" viewBox="0 0 30 30" fill="none" xmlns="http://www.w3.org/2000/svg">
<path d="M27.1213 20.585C27.0963 20.565 24.4462 18.535 24.4925 13.0475C24.5175 9.88251 23.4775 7.07001 21.5588 5.12876C19.84 3.38751 17.5125 2.42501 15.0062 2.41251H14.99C12.485 2.42501 10.1575 3.38751 8.4375 5.13001C6.52 7.07126 5.4775 9.88251 5.505 13.0475C5.55125 18.46 2.98 20.5063 2.8775 20.585C2.5525 20.8263 2.42 21.2475 2.54625 21.6325C2.67375 22.0175 3.03375 22.2763 3.43625 22.2763H9.58625C9.71375 25.1638 12.0825 27.4763 14.9987 27.4763C17.915 27.4763 20.2812 25.1638 20.4075 22.2763H26.56C26.9625 22.2763 27.3225 22.0188 27.4475 21.6338C27.5763 21.25 27.4437 20.8275 27.1187 20.5863L27.1213 20.585ZM15 25.5975C13.1187 25.5975 11.5875 24.1263 11.465 22.275H18.535C18.41 24.125 16.8812 25.6 15 25.6V25.5975ZM5.475 20.4C6.4 18.985 7.41 16.615 7.38 13.03C7.3575 10.33 8.185 8.05251 9.77125 6.44626C11.1375 5.06251 12.9962 4.29626 15 4.28751C17.0037 4.29751 18.8587 5.06251 20.225 6.44751C21.8125 8.05376 22.6412 10.33 22.6187 13.0313C22.5887 16.6163 23.6 18.9875 24.525 20.4013H5.475V20.4Z" fill="#0F1419"/>
</svg>
