<svg t="1715894196347" class="icon" viewBox="0 0 1024 1024" version="1.1" xmlns="http://www.w3.org/2000/svg" p-id="3018" width="200" height="200"><path d="M848.76288 333.62432H164.99712C99.32288 333.62432 46.08 386.87232 46.08 452.54144v297.28768c0 65.67424 53.24288 118.92224 118.91712 118.92224h683.77088c65.66912 0 118.91712-53.24288 118.91712-118.92224V452.54144c-0.00512-65.66912-53.248-118.91712-118.92224-118.91712z" fill="#96383D" p-id="3019"></path><path d="M639.8208 51.2h-474.8288a44.58496 44.58496 0 0 0-44.59008 44.59008v609.44896a44.57984 44.57984 0 0 0 44.59008 44.59008h683.776a44.58496 44.58496 0 0 0 44.59008-44.59008V304.73728L639.8208 51.2z" fill="#EBE2CE" p-id="3020"></path><path d="M551.4752 229.57568H209.59232v44.59008h341.88288v-44.59008zM209.59232 794.42432h594.58048v-44.5952H209.59232v44.5952z m0-89.18528h594.58048v-44.5952H209.59232v44.5952z m0-178.37568h594.58048v-44.5952H209.59232v44.5952z m0 89.18528h594.58048v-44.59008H209.59232v44.59008z m0-222.96576v44.59008h594.58048v-44.59008H209.59232z" fill="#C9C1B1" p-id="3021"></path><path d="M941.83936 393.31328L75.60704 955.02848c12.89216 10.93632 29.29664 17.77152 47.44192 17.77152H893.5936c40.91904 0 74.09152-33.4592 74.09152-74.74688V449.60768c-0.00512-22.58432-10.14784-42.58816-25.84576-56.2944z" fill="#D54D54" p-id="3022"></path><path d="M71.99232 396.5696C56.25344 410.18368 46.08 430.08512 46.08 452.54144v445.93152C46.08 939.53024 79.34976 972.8 120.40192 972.8h772.95104c18.20672 0 34.65216-6.79424 47.56992-17.664L71.99232 396.5696z" fill="#EA5455" p-id="3023"></path><path d="M655.52384 66.90816v236.8l237.82912 74.89024V304.73728z" fill="" p-id="3024"></path><path d="M640.66048 52.0448v207.2576a44.58496 44.58496 0 0 0 44.5952 44.5952h207.2576l-251.8528-251.8528z" fill="#FFFBF2" p-id="3025"></path></svg>