<svg width="16" height="16" viewBox="0 0 16 16" fill="none" xmlns="http://www.w3.org/2000/svg">
<path d="M9.67593 0.00809701L6.31729 0H6.31567C2.77404 0 0 2.77485 0 6.31729C0 9.63545 2.57971 12.152 6.04442 12.2848V15.3843C6.04442 15.4718 6.08005 15.6159 6.14159 15.7106C6.25656 15.8928 6.45251 15.9916 6.65332 15.9916C6.76506 15.9916 6.87761 15.9608 6.97882 15.8961C7.19258 15.76 12.22 12.5439 13.5277 11.4378C15.0677 10.1342 15.9892 8.22333 15.9916 6.32701V6.31324C15.9867 2.77728 13.2143 0.00890671 9.67593 0.00809701ZM12.7423 10.5115C11.8241 11.2889 8.8055 13.2686 7.25897 14.271V11.6905C7.25897 11.3553 6.98772 11.0832 6.6517 11.0832H6.33106C3.36755 11.0832 1.21536 9.07837 1.21536 6.31729C1.21536 3.45581 3.45662 1.21455 6.31648 1.21455L9.67431 1.22265H9.67593C12.5358 1.22265 14.7771 3.46228 14.7787 6.32053C14.7762 7.86706 14.0151 9.43302 12.7423 10.5115Z" fill="#5B7083"/>
</svg>
