<svg width="20" height="20" viewBox="0 0 20 20" fill="none" xmlns="http://www.w3.org/2000/svg">
<g clip-path="url(#clip0_245_405)">
<path d="M19.2466 12.688C19.0102 12.4508 18.6256 12.4508 18.3883 12.688L16.5908 14.4856V6.19423C16.5908 4.51976 15.2281 3.15785 13.5544 3.15785H8.81765C8.48243 3.15785 8.21037 3.4299 8.21037 3.76512C8.21037 4.10034 8.48243 4.3724 8.81765 4.3724H13.5544C14.5584 4.3724 15.3762 5.1902 15.3762 6.19423V14.4856L13.5787 12.688C13.3414 12.4508 12.9568 12.4508 12.7204 12.688C12.484 12.9253 12.4824 13.3099 12.7204 13.5463L15.5544 16.3803C15.6718 16.4993 15.8272 16.5584 15.9835 16.5584C16.1398 16.5584 16.2936 16.5001 16.4126 16.3803L19.2466 13.5463C19.4847 13.3099 19.4847 12.9253 19.2466 12.688ZM10.6152 15.3439H5.87843C4.8744 15.3439 4.0566 14.5261 4.0566 13.522V5.23068L5.85414 7.02822C5.97397 7.14724 6.12944 7.20635 6.2849 7.20635C6.44036 7.20635 6.59582 7.14724 6.71404 7.02822C6.95128 6.79098 6.95128 6.40637 6.71404 6.16993L3.88009 3.33598C3.64284 3.09793 3.25824 3.09793 3.0218 3.33598L0.187847 6.16993C-0.0502052 6.40637 -0.0502052 6.79098 0.187847 7.02822C0.425899 7.26546 0.808888 7.26546 1.04613 7.02822L2.84367 5.23068V13.522C2.84367 15.1965 4.2064 16.5584 5.88005 16.5584H10.6168C10.952 16.5584 11.2241 16.2863 11.2241 15.9511C11.2241 15.6159 10.9512 15.3439 10.6168 15.3439H10.6152Z" fill="#5B7083"/>
</g>
<defs>
<clipPath id="clip0_245_405">
<rect width="19.4328" height="19.4328" fill="white"/>
</clipPath>
</defs>
</svg>
