<svg width="19" height="19" viewBox="0 0 19 19" fill="none" xmlns="http://www.w3.org/2000/svg">
<path d="M17.0446 16.2054L14.1471 13.3079C15.196 12.065 15.8333 10.4611 15.8333 8.70833C15.8333 4.77375 12.6429 1.58333 8.70831 1.58333C4.77373 1.58333 1.58331 4.77375 1.58331 8.70833C1.58331 12.6429 4.77373 15.8333 8.70831 15.8333C10.4619 15.8333 12.065 15.1968 13.3063 14.1471L16.2038 17.0446C16.3202 17.1602 16.473 17.2188 16.6234 17.2188C16.7738 17.2188 16.9282 17.161 17.043 17.0446C17.2765 16.8126 17.2765 16.4374 17.0446 16.2054ZM2.77081 8.70833C2.77081 5.43479 5.43477 2.77083 8.70831 2.77083C11.9819 2.77083 14.6458 5.43479 14.6458 8.70833C14.6458 11.9819 11.9819 14.6458 8.70831 14.6458C5.43477 14.6458 2.77081 11.9819 2.77081 8.70833Z" fill="#5B7083"/>
</svg>
